<?xml version="1.0" standalone="no"?>
<!DOCTYPE svg PUBLIC "-//W3C//DTD SVG 20010904//EN"
 "http://www.w3.org/TR/2001/REC-SVG-20010904/DTD/svg10.dtd">
<svg version="1.0" xmlns="http://www.w3.org/2000/svg"
 width="480.000000pt" height="480.000000pt" viewBox="0 0 480.000000 480.000000"
 preserveAspectRatio="xMidYMid meet">
<metadata>
Created by potrace 1.11, written by Peter Selinger 2001-2013
</metadata>
<g transform="translate(0.000000,480.000000) scale(0.100000,-0.100000)"
fill="#000000" stroke="none">
<path d="M0 1935 l0 -1935 1505 0 1505 0 0 480 0 480 640 0 640 0 0 195 0 195
-321 0 -321 0 53 58 c30 32 174 185 322 340 l267 283 0 159 0 160 -635 0 -635
0 0 -195 0 -195 304 -2 305 -3 -307 -327 -307 -327 -3 317 c-2 237 -5 318 -15
324 -16 11 -85 -1 -123 -21 -18 -9 -43 -29 -56 -46 -49 -59 -51 -80 -49 -512
l2 -403 -245 0 -246 0 0 940 0 940 245 0 245 0 0 -334 0 -334 63 62 c34 33 88
74 120 90 l57 28 0 759 0 759 -1505 0 -1505 0 0 -1935z m1590 827 c168 -47
287 -119 409 -248 45 -47 81 -88 80 -92 0 -4 -83 -71 -185 -149 l-184 -143
-63 63 c-181 181 -442 195 -616 32 -55 -52 -112 -153 -131 -234 -16 -69 -16
-193 0 -262 32 -140 142 -276 257 -319 172 -65 358 -21 494 116 35 35 67 64
72 64 6 0 341 -234 366 -256 8 -7 -73 -105 -133 -162 -84 -78 -139 -115 -239
-162 -104 -48 -195 -70 -321 -79 -307 -21 -564 68 -753 261 -84 85 -127 145
-179 253 -215 449 -47 991 380 1230 65 36 222 92 296 106 25 4 119 6 210 5
129 -3 181 -8 240 -24z"/>
</g>
</svg>
